<svg id="Layer_1" data-name="Layer 1" xmlns="http://www.w3.org/2000/svg" viewBox="0 0 36.57 48"><defs><style>.cls-1{fill:none;stroke:#000;stroke-miterlimit:10;}</style></defs><title>icon</title><path d="M37.71,16H35.43V11.43a11.43,11.43,0,0,0-22.86,0V16H10.29a4.58,4.58,0,0,0-4.57,4.57V43.43A4.58,4.58,0,0,0,10.29,48H37.71a4.58,4.58,0,0,0,4.57-4.57V20.57A4.58,4.58,0,0,0,37.71,16Zm-20.8-4.57a7.09,7.09,0,0,1,14.17,0V16H16.91Zm20.8,32H10.29V20.57H37.71Z" transform="translate(-5.71)"/><path d="M33.14,32c0,.63-.9,1.14-2,1.14H28.79c-1.1,0-1.36.64-.59,1.41l1.65,1.65c.78.78,1,1.78.6,2.23s-1.45.17-2.23-.6l-1.67-1.67c-.78-.78-1.41-.51-1.41.59v2.4c0,1.1-.51,2-1.14,2s-1.14-.9-1.14-2V36.77c0-1.1-.64-1.36-1.41-.59l-1.67,1.67c-.78.78-1.78,1-2.23.6s-.18-1.45.6-2.23l1.67-1.67c.78-.78.51-1.41-.59-1.41H16.86c-1.1,0-2-.51-2-1.14s.9-1.14,2-1.14h2.4c1.1,0,1.36-.64.59-1.41l-1.7-1.7c-.78-.78-1-1.78-.6-2.23s1.45-.18,2.23.6l1.67,1.67c.78.78,1.41.51,1.41-.59V24.86c0-1.1.51-2,1.14-2s1.14.9,1.14,2v2.38c0,1.1.64,1.36,1.41.59l1.67-1.67c.78-.78,1.78-1,2.23-.6s.18,1.45-.6,2.23l-1.67,1.67c-.78.78-.51,1.41.59,1.41h2.38C32.24,30.86,33.14,31.37,33.14,32Z" transform="translate(-5.71)"/><path class="cls-1" d="M33.14,32c0,.63-.9,1.14-2,1.14H28.79c-1.1,0-1.36.64-.59,1.41l1.65,1.65c.78.78,1,1.78.6,2.23s-1.45.17-2.23-.6l-1.67-1.67c-.78-.78-1.41-.51-1.41.59v2.4c0,1.1-.51,2-1.14,2s-1.14-.9-1.14-2V36.77c0-1.1-.64-1.36-1.41-.59l-1.67,1.67c-.78.78-1.78,1-2.23.6s-.18-1.45.6-2.23l1.67-1.67c.78-.78.51-1.41-.59-1.41H16.86c-1.1,0-2-.51-2-1.14s.9-1.14,2-1.14h2.4c1.1,0,1.36-.64.59-1.41l-1.7-1.7c-.78-.78-1-1.78-.6-2.23s1.45-.18,2.23.6l1.67,1.67c.78.78,1.41.51,1.41-.59V24.86c0-1.1.51-2,1.14-2s1.14.9,1.14,2v2.38c0,1.1.64,1.36,1.41.59l1.67-1.67c.78-.78,1.78-1,2.23-.6s.18,1.45-.6,2.23l-1.67,1.67c-.78.78-.51,1.41.59,1.41h2.38C32.24,30.86,33.14,31.37,33.14,32Z" transform="translate(-5.71)"/></svg>